<?xml version="1.0" standalone="no"?>
<!DOCTYPE svg PUBLIC "-//W3C//DTD SVG 1.0//EN" "http://www.w3.org/TR/2001/REC-SVG-20010904/DTD/svg10.dtd">
<svg width="480" height="480" viewBox="0 0 480 480" xmlns="http://www.w3.org/2000/svg">
<title>Rider-Waite-Smith Tarot trump 07 (The Chariot) yoni-lingam symbol</title>
<g transform="translate(-1.2,470) scale(0.2,-0.2)">
<path stroke-linejoin="round" stroke-width="75.5989" style="fill:#ffffff;stroke:#000000" d="M96.6416,1819.95
C96.6416,1858.13,102.7793,1895.4,113.412,1923.9
C123.298,1982,156.348,1995.11,493.693,1995.11
C968.72,1995.11,1052.12,2119.4,1088.5,2162.2
C1117.12,2196.21,1147.06,2255.49,1205,2255.49
C1262.94,2255.49,1292.88,2196.21,1321.5,2162.2
C1357.88,2119.4,1441.28,1995.11,1916.3,1995.11
C2253.65,1995.11,2286.7,1982,2296.59,1923.9
C2307.22,1895.4,2313.36,1858.13,2313.36,1819.95
C2310.87,1260.2,2275.86,1123.38,2211,973.2
C2058.53,627.754,1778.18,628.216,1610,483.7
C1486.73,378.744,1493.49,290.301,1441.67,180.2
C1386.99,62.1406,1301.84,37.7998,1205,37.7998
C1108.16,37.7998,1023.01,62.1406,968.33,180.2
C916.505,290.301,923.268,378.744,800,483.7
C631.821,628.216,351.472,627.754,199,973.2
C125.74,1142.82,98.9456,1301.41,96.6416,1819.95Z"/>
<path style="fill:#ff0033" d="M719.626,1361.39
C719.626,1385.86,722.094,1410.29,727,1434.38
C727,1517.29,877.123,1587.06,1081,1607.54
L1081,1724
C1081,1792.48,1136.52,1848,1205,1848
C1273.48,1848,1329,1792.48,1329,1724
L1329,1607.54
C1532.88,1587.06,1683,1517.29,1683,1434.38
C1687.91,1410.29,1690.37,1385.86,1690.37,1361.39
C1690.37,1166.36,1536.99,1026.31,1329,986.516
L1329,720
C1329,651.517,1273.48,596,1205,596
C1136.52,596,1081,651.517,1081,720
L1081,986.516
C873.004,1026.31,719.626,1166.36,719.626,1361.39Z"/>
<path d="M1117,1441.39
C1131.5,1431.57,1170.93,1413.88,1205,1413.88
C1239.07,1413.88,1278.5,1431.57,1293,1441.39
L1293,1724
C1293,1772.63,1253.63,1812,1205,1812
C1156.37,1812,1117,1772.63,1117,1724
L1117,1441.39Z
M763,1434.38
L763.003,1433.94
C763.589,1388.43,898.329,1281.13,1205,1281.13
C1473.55,1281.13,1647,1374.46,1647,1434.38
C1647,1437.56,1646.56,1440.67,1645.57,1444.05
C1634,1483.54,1540.81,1556.13,1365,1585.16
L1365,1434.38
C1365,1368.38,1263.42,1361.88,1205,1361.88
C1110.55,1361.88,1045,1384.54,1045,1434.38
L1045,1585.16
C869.193,1556.13,775.996,1483.54,764.429,1444.05
C763.488,1440.83,763.044,1437.86,763.003,1434.84
L763,1434.38Z
M683.626,1361.39
C683.626,1387.13,686.113,1412.82,691.047,1438.16
C693.494,1533.93,827.81,1611.3,1045,1639.45
L1045,1724
C1045,1812.33,1116.67,1874,1205,1874
C1293.33,1874,1365,1812.33,1365,1724
L1365,1639.45
C1603.87,1608.49,1715.64,1524.04,1718.93,1438.27
C1723.88,1412.88,1726.37,1387.15,1726.37,1361.39
C1726.37,1157.19,1574.27,1014.33,1365,966.523
L1365,720
C1365,631.666,1293.33,570,1205,570
C1116.67,570,1045,631.666,1045,720
L1045,966.523
C835.73,1014.32,683.626,1157.19,683.626,1361.39Z
M757.616,1325.43
C778.905,1135.08,968.86,1001,1205,1001
C1441.43,1001,1631.08,1135.06,1652.38,1325.42
C1557.55,1258.52,1376.36,1229.13,1205,1229.13
C1033.63,1229.13,852.443,1258.53,757.616,1325.43Z
M1117,720
C1117,671.368,1156.37,622,1205,622
C1253.63,622,1293,671.368,1293,720
L1293,954.126
C1264.38,950.732,1234.98,949,1205,949
C1175.02,949,1145.62,950.733,1117,954.126
L1117,720Z"/>
</g>
</svg>
