<?xml version="1.0" standalone="no"?>
<!DOCTYPE svg PUBLIC "-//W3C//DTD SVG 1.0//EN" "http://www.w3.org/TR/2001/REC-SVG-20010904/DTD/svg10.dtd">
<svg width="842" height="354" viewBox="0 0 842 354" xmlns="http://www.w3.org/2000/svg" xmlns:svg="http://www.w3.org/2000/svg" xmlns:xlink="http://www.w3.org/1999/xlink">
<title>Rider-Waite-Smith Tarot trump 02 (High Priestess) crown</title>
<defs>
<radialGradient id="crcGx" gradientUnits="userSpaceOnUse" cx="1900" cy="834" fx="1900" fy="834" r="649">
<stop offset="25%" stop-color="#ffffff"/>
<stop offset="100%" stop-color="#70ccff"/>
</radialGradient>
<radialGradient id="crcGy" gradientUnits="userSpaceOnUse" cx="1900" cy="1042.5" fx="1900" fy="834" r="1298">
<stop offset="60%" stop-color="#ffffff"/>
<stop offset="90%" stop-color="#70ccff"/>
</radialGradient>
</defs>
<g stroke-linejoin="round" transform="translate(22,332.5) scale(0.21,-0.21)" >
<path d="M-37,1355
c26,15,53,28,82,39
c88,35,220,61,312,61
c346,0,491,-91,641,-210
c55,-43,179,-174,230,-269
c65,311,342,545,672,545
c330,0,607,-234,672,-545
c51,95,175,226,230,269
c150,119,295,210,641,210
c92,0,224,-26,312,-61
c29,-11,56,-24,82,-39
c-26,-11,-54,-22,-84,-32
c-112,-38,-515,-88,-800,-486
c-101,-142,-188,-329,-241,-577
c-15,-72,-2,-131,-30,-183
c-6,-12,-16,-25,-28,-33
c-90,-68,-610,-82,-754,-82
c-144,0,-664,14,-754,82
c-12,8,-22,21,-28,33
c-28,52,-15,111,-30,183
c-53,248,-140,435,-241,577
c-285,398,-688,448,-800,486
c-30,10,-58,21,-84,32Z"/>
<circle fill="url(#crcGx)" cx="1900" cy="834" r="649"/>
<path fill="url(#crcGy)" d="M3741,1359
c-86,34,-213,58,-298,58
c-340,0,-479,-89,-618,-202
c-83,-62,-229,-241,-236,-300
c0,-9,-2,-38,-2,-81
c0,-379,-308,-687,-687,-687
c-379,0,-687,308,-687,687
c0,43,-2,72,-2,81
c-7,59,-153,238,-236,300
c-139,113,-278,202,-618,202
c-85,0,-212,-24,-298,-58
c109,-37,526,-89,819,-500
c105,-146,194,-338,247,-591
c18,-81,0,-152,40,-191
c42,-43,400,-77,735,-77
c335,0,693,34,735,77
c40,39,22,110,40,191
c53,253,142,445,247,591
c293,411,710,463,819,500Z"/>
</g>
</svg>
